<svg width="55" height="55" viewBox="0 0 55 55" fill="none" xmlns="http://www.w3.org/2000/svg">
<path d="M27.3438 54.6875C12.2637 54.6875 0 42.4238 0 27.3438C0 19.8516 2.9668 12.8652 8.36719 7.65625C9.24219 6.80859 10.6367 6.83594 11.4707 7.71094C12.3184 8.58594 12.291 9.98047 11.416 10.8145C6.89062 15.1895 4.40234 21.0547 4.40234 27.3438C4.40234 39.9902 14.6973 50.2852 27.3438 50.2852C39.9902 50.2852 50.2852 39.9902 50.2852 27.3438C50.2852 15.4355 41.166 5.60547 29.5312 4.49805V13.0566C29.5312 14.2734 28.5469 15.2578 27.3301 15.2578C26.1133 15.2578 25.1289 14.2734 25.1289 13.0566V2.20117C25.1289 0.984375 26.1133 0 27.3301 0C42.4102 0 54.6738 12.2637 54.6738 27.3438C54.6738 42.4238 42.4238 54.6875 27.3438 54.6875Z" fill="white"/>
<path d="M16.3923 14.4791L29.9958 24.2545C31.8415 25.5807 32.279 28.151 30.9528 29.9967C29.6267 31.8424 27.0563 32.2799 25.2106 30.9537C24.8278 30.6803 24.4997 30.3522 24.2536 29.9967L14.4782 16.3932C14.0407 15.7779 14.1774 14.9166 14.7927 14.4791C15.2849 14.1236 15.9274 14.151 16.3923 14.4791Z" fill="white"/>
</svg>
