<svg width="53" height="68" viewBox="0 0 53 68" fill="none" xmlns="http://www.w3.org/2000/svg">
<path d="M42 15.9536C36.3563 8.0751 30.9258 3.22803 27.1031 0.293855C26.5945 -0.0952071 25.9055 -0.0952068 25.3969 0.277645C21.6234 3.04971 16.193 8.12374 10.5492 15.9212C4.42969 24.3509 0.213281 33.4939 0.016406 43.6257C0.016406 43.8202 0 44.031 0 44.2255C0 47.2083 0.639844 50.0452 1.78828 52.6714C2.46094 54.179 3.29766 55.6056 4.28203 56.9349C8.95781 63.2571 17.0461 67.4396 26.2336 67.4396C40.7367 67.4396 52.5 57.0483 52.5 44.2255C52.5 33.8991 48.0703 24.4157 42 15.9536ZM27.8906 58.7991H27.8086C26.1844 58.7991 25.8398 56.5134 27.382 56.0271C34.7812 53.7251 38.8008 49.7858 41.557 42.9286C42.1312 41.4858 44.2969 41.8749 44.3133 43.4312V43.6581C44.2969 52.0229 36.9469 58.7991 27.8906 58.7991Z" fill="white"/>
</svg>
